<?xml version="1.0" standalone="no"?>
<!DOCTYPE svg PUBLIC "-//W3C//DTD SVG 20010904//EN"
 "http://www.w3.org/TR/2001/REC-SVG-20010904/DTD/svg10.dtd">
<svg version="1.0" xmlns="http://www.w3.org/2000/svg"
 width="500.000000pt" height="500.000000pt" viewBox="0 0 500.000000 500.000000"
 preserveAspectRatio="xMidYMid meet">

<g transform="translate(0.000000,500.000000) scale(0.100000,-0.100000)"
fill="#000000" stroke="none">
<path d="M1690 2065 c0 -11 11 -15 40 -15 29 0 40 4 40 15 0 18 -26 20 -34 3
-5 -10 -7 -10 -12 0 -8 17 -34 15 -34 -3z"/>
<path d="M2960 2050 c0 -5 5 -10 11 -10 5 0 7 5 4 10 -3 6 -8 10 -11 10 -2 0
-4 -4 -4 -10z"/>
<path d="M3022 1995 c-12 -9 -22 -20 -22 -26 0 -15 30 -10 37 7 4 12 14 14 34
10 16 -3 29 -1 29 4 0 6 -6 10 -14 10 -8 0 -20 2 -28 5 -7 3 -23 -2 -36 -10z"/>
<path d="M1753 1992 c-7 -4 20 -6 60 -4 102 4 115 10 27 11 -41 0 -80 -3 -87
-7z"/>
<path d="M2890 1970 c0 -5 5 -10 10 -10 6 0 10 5 10 10 0 6 -4 10 -10 10 -5 0
-10 -4 -10 -10z"/>
<path d="M1738 1938 c2 -10 8 -15 13 -12 14 8 11 31 -5 31 -8 0 -11 -8 -8 -19z"/>
<path d="M2940 1950 c0 -12 37 -14 44 -2 2 4 -6 9 -20 10 -13 1 -24 -3 -24 -8z"/>
<path d="M3067 1947 c-3 -8 1 -13 11 -12 21 1 28 19 9 23 -8 2 -17 -3 -20 -11z"/>
<path d="M3036 1904 c-9 -22 -8 -24 9 -18 8 4 15 12 15 20 0 19 -16 18 -24 -2z"/>
<path d="M2965 1871 c-6 -11 13 -26 22 -17 4 3 0 6 -8 7 -8 1 -3 5 11 9 23 7
23 8 3 9 -12 1 -24 -3 -28 -8z"/>
<path d="M3039 1863 c-13 -16 -12 -17 4 -4 16 13 21 21 13 21 -2 0 -10 -8 -17
-17z"/>
<path d="M2920 1820 c0 -5 7 -10 15 -10 8 0 15 5 15 10 0 6 -7 10 -15 10 -8 0
-15 -4 -15 -10z"/>
<path d="M2168 1753 c7 -3 16 -2 19 1 4 3 -2 6 -13 5 -11 0 -14 -3 -6 -6z"/>
<path d="M2000 1739 c0 -16 20 -49 29 -49 4 0 8 14 9 30 0 23 -4 30 -19 30
-10 0 -19 -5 -19 -11z"/>
<path d="M2821 1734 c0 -11 3 -14 6 -6 3 7 2 16 -1 19 -3 4 -6 -2 -5 -13z"/>
<path d="M2720 1716 c0 -9 5 -16 10 -16 6 0 10 4 10 9 0 6 -4 13 -10 16 -5 3
-10 -1 -10 -9z"/>
<path d="M2801 1714 c0 -11 3 -14 6 -6 3 7 2 16 -1 19 -3 4 -6 -2 -5 -13z"/>
<path d="M2063 1675 c-18 -20 -16 -28 8 -43 26 -17 35 -10 15 11 -9 9 -13 23
-10 31 7 20 3 20 -13 1z"/>
<path d="M2760 1670 c0 -11 2 -20 4 -20 2 0 6 9 9 20 3 11 1 20 -4 20 -5 0 -9
-9 -9 -20z"/>
<path d="M2140 1628 c0 -4 7 -8 15 -8 8 0 15 4 15 8 0 5 -7 9 -15 9 -8 0 -15
-4 -15 -9z"/>
<path d="M2220 1615 c0 -18 4 -23 16 -18 11 4 12 8 4 13 -7 4 -9 13 -6 19 4 6
2 11 -3 11 -6 0 -11 -11 -11 -25z"/>
<path d="M2632 1628 c3 -7 15 -14 29 -15 l24 -2 -25 8 -25 8 30 5 30 5 -33 2
c-23 1 -32 -3 -30 -11z"/>
<path d="M2723 1625 c0 -18 19 -15 25 3 2 7 -3 12 -10 12 -8 0 -15 -7 -15 -15z"/>
<path d="M2580 1600 c0 -5 5 -10 11 -10 5 0 7 5 4 10 -3 6 -8 10 -11 10 -2 0
-4 -4 -4 -10z"/>
</g>
</svg>
